<svg width="172" height="28" viewBox="0 0 172 28" fill="none" xmlns="http://www.w3.org/2000/svg">
<path d="M0 3C0 1.34315 1.34315 0 3 0H169C170.657 0 172 1.34315 172 3V25C172 26.6569 170.657 28 169 28H3C1.34315 28 0 26.6569 0 25V3Z" fill="#F82424" fill-opacity="0.1"/>
<circle cx="57.5" cy="14" r="4" fill="#FF0000"/>
<path d="M75.9941 9.57666L72.9346 18H71.6841L75.207 8.75781H76.0132L75.9941 9.57666ZM78.5586 18L75.4927 9.57666L75.4736 8.75781H76.2798L79.8154 18H78.5586ZM78.3999 14.5786V15.5815H73.2075V14.5786H78.3999ZM82.0498 12.5981V18H80.8755V11.1318H81.9863L82.0498 12.5981ZM81.7705 14.3057L81.2817 14.2866C81.286 13.8169 81.3558 13.3831 81.4912 12.9854C81.6266 12.5833 81.8171 12.2342 82.0625 11.938C82.3079 11.6418 82.5999 11.4132 82.9385 11.2524C83.2812 11.0874 83.66 11.0049 84.0747 11.0049C84.4132 11.0049 84.7179 11.0514 84.9888 11.1445C85.2596 11.2334 85.4902 11.3773 85.6807 11.5762C85.8753 11.7751 86.0234 12.0332 86.125 12.3506C86.2266 12.6637 86.2773 13.0467 86.2773 13.4995V18H85.0967V13.4868C85.0967 13.1271 85.0438 12.8394 84.938 12.6235C84.8322 12.4035 84.6777 12.2448 84.4746 12.1475C84.2715 12.0459 84.0218 11.9951 83.7256 11.9951C83.4336 11.9951 83.167 12.0565 82.9258 12.1792C82.6888 12.3019 82.4836 12.4712 82.3101 12.687C82.1408 12.9028 82.0075 13.1504 81.9102 13.4297C81.8171 13.7048 81.7705 13.9967 81.7705 14.3057ZM89.2354 12.5981V18H88.061V11.1318H89.1719L89.2354 12.5981ZM88.9561 14.3057L88.4673 14.2866C88.4715 13.8169 88.5413 13.3831 88.6768 12.9854C88.8122 12.5833 89.0026 12.2342 89.248 11.938C89.4935 11.6418 89.7855 11.4132 90.124 11.2524C90.4668 11.0874 90.8455 11.0049 91.2603 11.0049C91.5988 11.0049 91.9035 11.0514 92.1743 11.1445C92.4451 11.2334 92.6758 11.3773 92.8662 11.5762C93.0609 11.7751 93.209 12.0332 93.3105 12.3506C93.4121 12.6637 93.4629 13.0467 93.4629 13.4995V18H92.2822V13.4868C92.2822 13.1271 92.2293 12.8394 92.1235 12.6235C92.0177 12.4035 91.8633 12.2448 91.6602 12.1475C91.457 12.0459 91.2074 11.9951 90.9111 11.9951C90.6191 11.9951 90.3525 12.0565 90.1113 12.1792C89.8743 12.3019 89.6691 12.4712 89.4956 12.687C89.3263 12.9028 89.193 13.1504 89.0957 13.4297C89.0026 13.7048 88.9561 13.9967 88.9561 14.3057ZM99.4487 16.4131V11.1318H100.629V18H99.5059L99.4487 16.4131ZM99.6709 14.9658L100.16 14.9531C100.16 15.4102 100.111 15.8333 100.014 16.2227C99.9206 16.6077 99.7682 16.9421 99.5566 17.2256C99.3451 17.5091 99.0679 17.7313 98.7251 17.8921C98.3823 18.0487 97.9655 18.127 97.4746 18.127C97.1403 18.127 96.8335 18.0783 96.5542 17.981C96.2791 17.8836 96.0422 17.7334 95.8433 17.5303C95.6444 17.3271 95.4899 17.0627 95.3799 16.7368C95.2741 16.411 95.2212 16.0195 95.2212 15.5625V11.1318H96.3955V15.5752C96.3955 15.8841 96.4294 16.1401 96.4971 16.3433C96.569 16.5422 96.6642 16.7008 96.7827 16.8193C96.9054 16.9336 97.0409 17.014 97.189 17.0605C97.3413 17.1071 97.4979 17.1304 97.6587 17.1304C98.158 17.1304 98.5537 17.0352 98.8457 16.8447C99.1377 16.6501 99.3472 16.3898 99.4741 16.064C99.6053 15.7339 99.6709 15.3678 99.6709 14.9658ZM103.695 8.25V18H102.515V8.25H103.695ZM108.431 18.127C107.952 18.127 107.519 18.0465 107.129 17.8857C106.744 17.7207 106.412 17.4901 106.133 17.1938C105.858 16.8976 105.646 16.5464 105.498 16.1401C105.35 15.7339 105.276 15.2896 105.276 14.8071V14.5405C105.276 13.9819 105.358 13.4847 105.523 13.0488C105.688 12.6087 105.913 12.2363 106.196 11.9316C106.48 11.627 106.801 11.3963 107.161 11.2397C107.521 11.0832 107.893 11.0049 108.278 11.0049C108.769 11.0049 109.192 11.0895 109.548 11.2588C109.908 11.4281 110.202 11.665 110.43 11.9697C110.659 12.2702 110.828 12.6257 110.938 13.0361C111.048 13.4424 111.103 13.8867 111.103 14.3691V14.896H105.974V13.9375H109.929V13.8486C109.912 13.5439 109.848 13.2477 109.738 12.96C109.632 12.6722 109.463 12.4352 109.23 12.249C108.998 12.0628 108.68 11.9697 108.278 11.9697C108.012 11.9697 107.766 12.0269 107.542 12.1411C107.318 12.2511 107.125 12.4162 106.964 12.6362C106.804 12.8563 106.679 13.125 106.59 13.4424C106.501 13.7598 106.457 14.1258 106.457 14.5405V14.8071C106.457 15.133 106.501 15.4398 106.59 15.7275C106.683 16.0111 106.816 16.2607 106.99 16.4766C107.167 16.6924 107.381 16.8617 107.631 16.9844C107.885 17.1071 108.173 17.1685 108.494 17.1685C108.909 17.1685 109.26 17.0838 109.548 16.9146C109.836 16.7453 110.087 16.5189 110.303 16.2354L111.014 16.8003C110.866 17.0246 110.678 17.2383 110.449 17.4414C110.221 17.6445 109.939 17.8096 109.605 17.9365C109.275 18.0635 108.883 18.127 108.431 18.127ZM107.625 10.1162L108.856 8.25H110.271L108.57 10.1162H107.625ZM115.324 18.127C114.846 18.127 114.412 18.0465 114.023 17.8857C113.638 17.7207 113.306 17.4901 113.026 17.1938C112.751 16.8976 112.54 16.5464 112.392 16.1401C112.243 15.7339 112.169 15.2896 112.169 14.8071V14.5405C112.169 13.9819 112.252 13.4847 112.417 13.0488C112.582 12.6087 112.806 12.2363 113.09 11.9316C113.373 11.627 113.695 11.3963 114.055 11.2397C114.414 11.0832 114.787 11.0049 115.172 11.0049C115.663 11.0049 116.086 11.0895 116.441 11.2588C116.801 11.4281 117.095 11.665 117.324 11.9697C117.552 12.2702 117.722 12.6257 117.832 13.0361C117.942 13.4424 117.997 13.8867 117.997 14.3691V14.896H112.868V13.9375H116.822V13.8486C116.805 13.5439 116.742 13.2477 116.632 12.96C116.526 12.6722 116.357 12.4352 116.124 12.249C115.891 12.0628 115.574 11.9697 115.172 11.9697C114.905 11.9697 114.66 12.0269 114.436 12.1411C114.211 12.2511 114.019 12.4162 113.858 12.6362C113.697 12.8563 113.572 13.125 113.483 13.4424C113.395 13.7598 113.35 14.1258 113.35 14.5405V14.8071C113.35 15.133 113.395 15.4398 113.483 15.7275C113.576 16.0111 113.71 16.2607 113.883 16.4766C114.061 16.6924 114.275 16.8617 114.524 16.9844C114.778 17.1071 115.066 17.1685 115.388 17.1685C115.802 17.1685 116.154 17.0838 116.441 16.9146C116.729 16.7453 116.981 16.5189 117.197 16.2354L117.908 16.8003C117.76 17.0246 117.571 17.2383 117.343 17.4414C117.114 17.6445 116.833 17.8096 116.499 17.9365C116.168 18.0635 115.777 18.127 115.324 18.127Z" fill="#FF0000"/>
</svg>
